<svg xmlns="http://www.w3.org/2000/svg" viewBox="0 0 64 64">
  <circle cx="32" cy="32" r="28" fill="#e74c3c"/>
  <path d="M32 10c-4 0-7 3-7 7 0 .8.2 1.5.4 2.2-.5-.1-1-.2-1.6-.2-4.4 0-8 3.6-8 8 0 2.7 1.3 5 3.3 6.5-2.5 2.1-4.1 5.3-4.1 8.9 0 6.6 5.4 12 12 12s12-5.4 12-12c0-3.6-1.6-6.8-4.1-8.9 2-1.5 3.3-3.8 3.3-6.5 0-4.4-3.6-8-8-8-.6 0-1.1.1-1.6.2.2-.7.4-1.4.4-2.2 0-4-3-7-7-7z" fill="#c0392b"/>
  <path d="M47 20c0 2-1.5 3.5-3.5 3.5S40 22 40 20s1.5-3.5 3.5-3.5S47 18 47 20z" fill="#fff"/>
  <path d="M48 22c0 3-2.5 5.5-5.5 5.5S37 25 37 22" stroke="#fff" stroke-width="2" fill="none" stroke-linecap="round"/>
</svg>